# xmcd
#
# Track frame offsets:
#	150
#	10901
#	22183
#	33865
#	45586
#	57523
#	67213
#	79447
#	88879
#	100735
#	111017
#	124422
#	135842
#	148593
#	158046
#	168579
#	181034
#	191199
#	202049
#	212110
#	223323
#	233965
#	243451
#	257161
#	269424
#	280723
#	293574
#
# Disc length: 4048 seconds
#
# Revision: 0
# Processed by: cddbd v1.5.2PL0 Copyright (c) Steve Scherf et al.
# Submitted via: EasyCDDAExtractor 15.3.0.1
#
DISCID=a00fce1b
DTITLE=George Jones - Genesis Of A Genius - The Early Sessions
DYEAR=2011
DGENRE=Country
TTITLE0=George Jones - No Money In This Deal
TTITLE1=George Jones - You're In My Heart
TTITLE2=George Jones - Play It Cool
TTITLE3=George Jones and Sonny Burns - Wrong About You
TTITLE4=George Jones - Let Him Know
TTITLE5=George Jones - You All Goodnight
TTITLE6=George Jones and Sonny Burns - Heartbroken Me
TTITLE7=George Jones - Hold Everything
TTITLE8=George Jones - What's Wrong With You
TTITLE9=George Jones - Why Baby Why
TTITLE10=George Jones - Seasons Of My Heart
TTITLE11=George Jones - What Am I Worth (Vers. 1)
TTITLE12=George Jones - What Am I Worth (Vers. 2)
TTITLE13=George Jones - Still Hurtin'
TTITLE14=George Jones - I'm Ragged But I'm Right
TTITLE15=George Jones - Your Heart
TTITLE16=George Jones (Thumper Jones) - Rock It
TTITLE17=George Jones (Thumper Jones) - How Come It
TTITLE18=George Jones (Hank Smith) - Heartbreak Hotel
TTITLE19=George Jones - You Gotta Be My Baby
TTITLE20=George Jones - It's OK
TTITLE21=George Jones - Boat Of Life
TTITLE22=George Jones - Tagging Along
TTITLE23=George Jones - Just One More
TTITLE24=George Jones - Gonna Come Get You
TTITLE25=George Jones and Jeanette Hicks - Yearning
TTITLE26=George Jones - Wasted Words
EXTD=
EXTT0=
EXTT1=
EXTT2=
EXTT3=
EXTT4=
EXTT5=
EXTT6=
EXTT7=
EXTT8=
EXTT9=
EXTT10=
EXTT11=
EXTT12=
EXTT13=
EXTT14=
EXTT15=
EXTT16=
EXTT17=
EXTT18=
EXTT19=
EXTT20=
EXTT21=
EXTT22=
EXTT23=
EXTT24=
EXTT25=
EXTT26=
PLAYORDER=
